<svg xmlns="http://www.w3.org/2000/svg" viewBox="0 0 240 240">
    <defs>
        <style>
            .cls-1{fill:#00005b;}
            .cls-2{fill:#99f;}
        </style>
    </defs>
    <title>Asset 114</title>
    <g id="Layer_2" data-name="Layer 2">
        <g id="Surfaces">
            <g id="Video_Audio_Surface" data-name="Video/Audio Surface">
                <g id="Outline_no_shadow" data-name="Outline no shadow">
                    <rect class="cls-1" width="240" height="234" rx="42.5"/>
                </g>
            </g>
        </g>
        <g id="Outlined_Mnemonics_Logos" data-name="Outlined Mnemonics &amp; Logos">
            <g id="Pr">
                <path class="cls-2" d="M57.04167,164.09521V61.21631c0-.74976.32226-1.127.96631-1.127,1.71533,0,3.28157-.02515,5.64388-.08057q3.53979-.07911,7.64746-.16089,4.106-.07947,8.69433-.16113,4.5879-.07911,9.09619-.08057,12.23366,0,20.60791,3.05908a35.755,35.755,0,0,1,13.44385,8.21094,31.496,31.496,0,0,1,7.3252,11.35059,37.64894,37.64894,0,0,1,2.25439,12.96045q0,12.88256-5.957,21.252a33.65844,33.65844,0,0,1-16.1001,12.15552c-6.7622,2.52319-14.27636,3.3789-22.54,3.3789q-3.54345,0-4.99121-.08056-1.44873-.07947-4.34668-.08057v32.12183a1.28093,1.28093,0,0,1-1.44922,1.449H58.16862C57.41667,165.3833,57.04167,164.95557,57.04167,164.09521Zm21.74446-84.686v33.55493q2.09034.16224,3.86377.16089h5.313a37.7594,37.7594,0,0,0,11.51172-1.83765,17.35824,17.35824,0,0,0,8.21094-5.313q3.13915-3.70167,3.13965-10.304a16.28281,16.28281,0,0,0-2.335-8.85522,15.01394,15.01394,0,0,0-7.00341-5.71534A29.83951,29.83951,0,0,0,89.73389,79.0874q-3.86427,0-6.84229.08032Q79.91065,79.25085,78.78613,79.40918Z"/>
                <path class="cls-2" d="M146.61182,85.16064h17.54882a2.18994,2.18994,0,0,1,2.09278,1.61011,10.36119,10.36119,0,0,1,.59961,2.45947,26.0256,26.0256,0,0,1,.48291,3.13965q.15893,1.69044.16113,3.62232a37.61081,37.61081,0,0,1,10.70654-8.61328,31.42163,31.42163,0,0,1,15.181-3.911,1.28058,1.28058,0,0,1,1.44873,1.449v19.481q0,1.1283-1.60986,1.127a41.60851,41.60851,0,0,0-10.83382,1.013,39.61157,39.61157,0,0,0-8.37207,2.6565,15.70893,15.70893,0,0,0-5.14258,3.70288v51.03711q0,1.44909-1.28809,1.449H147.855a1.42233,1.42233,0,0,1-1.60986-1.61011V108.3894q0-3.53979-.08057-7.48657-.08275-3.94335-.2417-7.80859a58.94334,58.94334,0,0,0-.438-6.8064.925.925,0,0,1,1.127-1.1272Z"/>
            </g>
        </g>
    </g>
</svg>
